<svg xmlns="http://www.w3.org/2000/svg" viewBox="0 0 856 294" width="856" height="294">
<rect x="0.0" y="0.0" width="856.0" height="294.0" fill="white" rx="8"/>
<text x="428.0" y="20.0" font-family="system-ui,sans-serif" font-size="13" font-weight="600" fill="#333" text-anchor="middle">P99 Accuracy Error %</text>
<text x="133.0" y="92.0" font-family="system-ui,sans-serif" font-size="10" fill="#444" text-anchor="start" transform="rotate(-50,133.0,92.0)">atomichistogram</text>
<text x="207.0" y="92.0" font-family="system-ui,sans-serif" font-size="10" fill="#444" text-anchor="start" transform="rotate(-50,207.0,92.0)">base2histogram</text>
<text x="281.0" y="92.0" font-family="system-ui,sans-serif" font-size="10" fill="#444" text-anchor="start" transform="rotate(-50,281.0,92.0)">ddsketch</text>
<text x="355.0" y="92.0" font-family="system-ui,sans-serif" font-size="10" fill="#444" text-anchor="start" transform="rotate(-50,355.0,92.0)">gkstream</text>
<text x="429.0" y="92.0" font-family="system-ui,sans-serif" font-size="10" fill="#444" text-anchor="start" transform="rotate(-50,429.0,92.0)">h2histogram</text>
<text x="503.0" y="92.0" font-family="system-ui,sans-serif" font-size="10" fill="#444" text-anchor="start" transform="rotate(-50,503.0,92.0)">hdrhistogram</text>
<text x="577.0" y="92.0" font-family="system-ui,sans-serif" font-size="10" fill="#444" text-anchor="start" transform="rotate(-50,577.0,92.0)">quantogram</text>
<text x="651.0" y="92.0" font-family="system-ui,sans-serif" font-size="10" fill="#444" text-anchor="start" transform="rotate(-50,651.0,92.0)">reqsketch</text>
<text x="725.0" y="92.0" font-family="system-ui,sans-serif" font-size="10" fill="#444" text-anchor="start" transform="rotate(-50,725.0,92.0)">sparsehistogram</text>
<text x="799.0" y="92.0" font-family="system-ui,sans-serif" font-size="10" fill="#444" text-anchor="start" transform="rotate(-50,799.0,92.0)">tdigest</text>
<text x="86.0" y="121.0" font-family="system-ui,sans-serif" font-size="10" fill="#444" text-anchor="end">Log-Normal</text>
<rect x="96.0" y="102.0" width="72.0" height="30.0" fill="#ff7712" stroke="white" stroke-width="1.5" rx="2.5"/>
<text x="132.0" y="121.0" font-family="system-ui,sans-serif" font-size="9.5" font-weight="500" fill="#fff" text-anchor="middle">1.628%</text>
<rect x="170.0" y="102.0" width="72.0" height="30.0" fill="#82d278" stroke="white" stroke-width="1.5" rx="2.5"/>
<text x="206.0" y="121.0" font-family="system-ui,sans-serif" font-size="9.5" font-weight="500" fill="#333" text-anchor="middle">0.000%</text>
<rect x="244.0" y="102.0" width="72.0" height="30.0" fill="#e3d941" stroke="white" stroke-width="1.5" rx="2.5"/>
<text x="280.0" y="121.0" font-family="system-ui,sans-serif" font-size="9.5" font-weight="500" fill="#333" text-anchor="middle">0.782%</text>
<rect x="318.0" y="102.0" width="72.0" height="30.0" fill="#ff3c00" stroke="white" stroke-width="1.5" rx="2.5"/>
<text x="354.0" y="121.0" font-family="system-ui,sans-serif" font-size="9.5" font-weight="500" fill="#fff" text-anchor="middle">225.194%</text>
<rect x="392.0" y="102.0" width="72.0" height="30.0" fill="#ff7712" stroke="white" stroke-width="1.5" rx="2.5"/>
<text x="428.0" y="121.0" font-family="system-ui,sans-serif" font-size="9.5" font-weight="500" fill="#fff" text-anchor="middle">1.628%</text>
<rect x="466.0" y="102.0" width="72.0" height="30.0" fill="#b2d55c" stroke="white" stroke-width="1.5" rx="2.5"/>
<text x="502.0" y="121.0" font-family="system-ui,sans-serif" font-size="9.5" font-weight="500" fill="#333" text-anchor="middle">0.388%</text>
<rect x="540.0" y="102.0" width="72.0" height="30.0" fill="#a8d562" stroke="white" stroke-width="1.5" rx="2.5"/>
<text x="576.0" y="121.0" font-family="system-ui,sans-serif" font-size="9.5" font-weight="500" fill="#333" text-anchor="middle">0.310%</text>
<rect x="614.0" y="102.0" width="72.0" height="30.0" fill="#8bd272" stroke="white" stroke-width="1.5" rx="2.5"/>
<text x="650.0" y="121.0" font-family="system-ui,sans-serif" font-size="9.5" font-weight="500" fill="#333" text-anchor="middle">0.078%</text>
<rect x="688.0" y="102.0" width="72.0" height="30.0" fill="#ff7712" stroke="white" stroke-width="1.5" rx="2.5"/>
<text x="724.0" y="121.0" font-family="system-ui,sans-serif" font-size="9.5" font-weight="500" fill="#fff" text-anchor="middle">1.628%</text>
<rect x="762.0" y="102.0" width="72.0" height="30.0" fill="#9dd468" stroke="white" stroke-width="1.5" rx="2.5"/>
<text x="798.0" y="121.0" font-family="system-ui,sans-serif" font-size="9.5" font-weight="500" fill="#333" text-anchor="middle">0.223%</text>
<text x="86.0" y="151.0" font-family="system-ui,sans-serif" font-size="10" fill="#444" text-anchor="end">Bimodal</text>
<rect x="96.0" y="132.0" width="72.0" height="30.0" fill="#ff5508" stroke="white" stroke-width="1.5" rx="2.5"/>
<text x="132.0" y="151.0" font-family="system-ui,sans-serif" font-size="9.5" font-weight="500" fill="#fff" text-anchor="middle">1.839%</text>
<rect x="170.0" y="132.0" width="72.0" height="30.0" fill="#84d276" stroke="white" stroke-width="1.5" rx="2.5"/>
<text x="206.0" y="151.0" font-family="system-ui,sans-serif" font-size="9.5" font-weight="500" fill="#333" text-anchor="middle">0.018%</text>
<rect x="244.0" y="132.0" width="72.0" height="30.0" fill="#fedb32" stroke="white" stroke-width="1.5" rx="2.5"/>
<text x="280.0" y="151.0" font-family="system-ui,sans-serif" font-size="9.5" font-weight="500" fill="#fff" text-anchor="middle">0.999%</text>
<rect x="318.0" y="132.0" width="72.0" height="30.0" fill="#ff3c00" stroke="white" stroke-width="1.5" rx="2.5"/>
<text x="354.0" y="151.0" font-family="system-ui,sans-serif" font-size="9.5" font-weight="500" fill="#fff" text-anchor="middle">384.828%</text>
<rect x="392.0" y="132.0" width="72.0" height="30.0" fill="#ff5508" stroke="white" stroke-width="1.5" rx="2.5"/>
<text x="428.0" y="151.0" font-family="system-ui,sans-serif" font-size="9.5" font-weight="500" fill="#fff" text-anchor="middle">1.839%</text>
<rect x="466.0" y="132.0" width="72.0" height="30.0" fill="#93d36e" stroke="white" stroke-width="1.5" rx="2.5"/>
<text x="502.0" y="151.0" font-family="system-ui,sans-serif" font-size="9.5" font-weight="500" fill="#333" text-anchor="middle">0.141%</text>
<rect x="540.0" y="132.0" width="72.0" height="30.0" fill="#b7d65a" stroke="white" stroke-width="1.5" rx="2.5"/>
<text x="576.0" y="151.0" font-family="system-ui,sans-serif" font-size="9.5" font-weight="500" fill="#333" text-anchor="middle">0.424%</text>
<rect x="614.0" y="132.0" width="72.0" height="30.0" fill="#95d36c" stroke="white" stroke-width="1.5" rx="2.5"/>
<text x="650.0" y="151.0" font-family="system-ui,sans-serif" font-size="9.5" font-weight="500" fill="#333" text-anchor="middle">0.159%</text>
<rect x="688.0" y="132.0" width="72.0" height="30.0" fill="#ff5508" stroke="white" stroke-width="1.5" rx="2.5"/>
<text x="724.0" y="151.0" font-family="system-ui,sans-serif" font-size="9.5" font-weight="500" fill="#fff" text-anchor="middle">1.839%</text>
<rect x="762.0" y="132.0" width="72.0" height="30.0" fill="#99d36b" stroke="white" stroke-width="1.5" rx="2.5"/>
<text x="798.0" y="151.0" font-family="system-ui,sans-serif" font-size="9.5" font-weight="500" fill="#333" text-anchor="middle">0.184%</text>
<text x="86.0" y="181.0" font-family="system-ui,sans-serif" font-size="10" fill="#444" text-anchor="end">Exponential</text>
<rect x="96.0" y="162.0" width="72.0" height="30.0" fill="#ff3c00" stroke="white" stroke-width="1.5" rx="2.5"/>
<text x="132.0" y="181.0" font-family="system-ui,sans-serif" font-size="9.5" font-weight="500" fill="#fff" text-anchor="middle">2.673%</text>
<rect x="170.0" y="162.0" width="72.0" height="30.0" fill="#92d36e" stroke="white" stroke-width="1.5" rx="2.5"/>
<text x="206.0" y="181.0" font-family="system-ui,sans-serif" font-size="9.5" font-weight="500" fill="#333" text-anchor="middle">0.130%</text>
<rect x="244.0" y="162.0" width="72.0" height="30.0" fill="#b4d65b" stroke="white" stroke-width="1.5" rx="2.5"/>
<text x="280.0" y="181.0" font-family="system-ui,sans-serif" font-size="9.5" font-weight="500" fill="#333" text-anchor="middle">0.401%</text>
<rect x="318.0" y="162.0" width="72.0" height="30.0" fill="#ff3c00" stroke="white" stroke-width="1.5" rx="2.5"/>
<text x="354.0" y="181.0" font-family="system-ui,sans-serif" font-size="9.5" font-weight="500" fill="#fff" text-anchor="middle">226.967%</text>
<rect x="392.0" y="162.0" width="72.0" height="30.0" fill="#ff3c00" stroke="white" stroke-width="1.5" rx="2.5"/>
<text x="428.0" y="181.0" font-family="system-ui,sans-serif" font-size="9.5" font-weight="500" fill="#fff" text-anchor="middle">2.673%</text>
<rect x="466.0" y="162.0" width="72.0" height="30.0" fill="#8fd370" stroke="white" stroke-width="1.5" rx="2.5"/>
<text x="502.0" y="181.0" font-family="system-ui,sans-serif" font-size="9.5" font-weight="500" fill="#333" text-anchor="middle">0.109%</text>
<rect x="540.0" y="162.0" width="72.0" height="30.0" fill="#ded944" stroke="white" stroke-width="1.5" rx="2.5"/>
<text x="576.0" y="181.0" font-family="system-ui,sans-serif" font-size="9.5" font-weight="500" fill="#333" text-anchor="middle">0.739%</text>
<rect x="614.0" y="162.0" width="72.0" height="30.0" fill="#c5d751" stroke="white" stroke-width="1.5" rx="2.5"/>
<text x="650.0" y="181.0" font-family="system-ui,sans-serif" font-size="9.5" font-weight="500" fill="#333" text-anchor="middle">0.543%</text>
<rect x="688.0" y="162.0" width="72.0" height="30.0" fill="#ff3c00" stroke="white" stroke-width="1.5" rx="2.5"/>
<text x="724.0" y="181.0" font-family="system-ui,sans-serif" font-size="9.5" font-weight="500" fill="#fff" text-anchor="middle">2.673%</text>
<rect x="762.0" y="162.0" width="72.0" height="30.0" fill="#90d36f" stroke="white" stroke-width="1.5" rx="2.5"/>
<text x="798.0" y="181.0" font-family="system-ui,sans-serif" font-size="9.5" font-weight="500" fill="#333" text-anchor="middle">0.118%</text>
<text x="86.0" y="211.0" font-family="system-ui,sans-serif" font-size="10" fill="#444" text-anchor="end">Pareto</text>
<rect x="96.0" y="192.0" width="72.0" height="30.0" fill="#82d278" stroke="white" stroke-width="1.5" rx="2.5"/>
<text x="132.0" y="211.0" font-family="system-ui,sans-serif" font-size="9.5" font-weight="500" fill="#333" text-anchor="middle">0.000%</text>
<rect x="170.0" y="192.0" width="72.0" height="30.0" fill="#82d278" stroke="white" stroke-width="1.5" rx="2.5"/>
<text x="206.0" y="211.0" font-family="system-ui,sans-serif" font-size="9.5" font-weight="500" fill="#333" text-anchor="middle">0.000%</text>
<rect x="244.0" y="192.0" width="72.0" height="30.0" fill="#c7d751" stroke="white" stroke-width="1.5" rx="2.5"/>
<text x="280.0" y="211.0" font-family="system-ui,sans-serif" font-size="9.5" font-weight="500" fill="#333" text-anchor="middle">0.554%</text>
<rect x="318.0" y="192.0" width="72.0" height="30.0" fill="#ff3c00" stroke="white" stroke-width="1.5" rx="2.5"/>
<text x="354.0" y="211.0" font-family="system-ui,sans-serif" font-size="9.5" font-weight="500" fill="#fff" text-anchor="middle">127852.381%</text>
<rect x="392.0" y="192.0" width="72.0" height="30.0" fill="#82d278" stroke="white" stroke-width="1.5" rx="2.5"/>
<text x="428.0" y="211.0" font-family="system-ui,sans-serif" font-size="9.5" font-weight="500" fill="#333" text-anchor="middle">0.000%</text>
<rect x="466.0" y="192.0" width="72.0" height="30.0" fill="#82d278" stroke="white" stroke-width="1.5" rx="2.5"/>
<text x="502.0" y="211.0" font-family="system-ui,sans-serif" font-size="9.5" font-weight="500" fill="#333" text-anchor="middle">0.000%</text>
<rect x="540.0" y="192.0" width="72.0" height="30.0" fill="#82d278" stroke="white" stroke-width="1.5" rx="2.5"/>
<text x="576.0" y="211.0" font-family="system-ui,sans-serif" font-size="9.5" font-weight="500" fill="#333" text-anchor="middle">0.000%</text>
<rect x="614.0" y="192.0" width="72.0" height="30.0" fill="#82d278" stroke="white" stroke-width="1.5" rx="2.5"/>
<text x="650.0" y="211.0" font-family="system-ui,sans-serif" font-size="9.5" font-weight="500" fill="#333" text-anchor="middle">0.000%</text>
<rect x="688.0" y="192.0" width="72.0" height="30.0" fill="#82d278" stroke="white" stroke-width="1.5" rx="2.5"/>
<text x="724.0" y="211.0" font-family="system-ui,sans-serif" font-size="9.5" font-weight="500" fill="#333" text-anchor="middle">0.000%</text>
<rect x="762.0" y="192.0" width="72.0" height="30.0" fill="#ffaf23" stroke="white" stroke-width="1.5" rx="2.5"/>
<text x="798.0" y="211.0" font-family="system-ui,sans-serif" font-size="9.5" font-weight="500" fill="#fff" text-anchor="middle">1.280%</text>
<text x="86.0" y="241.0" font-family="system-ui,sans-serif" font-size="10" fill="#444" text-anchor="end">Uniform</text>
<rect x="96.0" y="222.0" width="72.0" height="30.0" fill="#f8db35" stroke="white" stroke-width="1.5" rx="2.5"/>
<text x="132.0" y="241.0" font-family="system-ui,sans-serif" font-size="9.5" font-weight="500" fill="#fff" text-anchor="middle">0.950%</text>
<rect x="170.0" y="222.0" width="72.0" height="30.0" fill="#ff3c00" stroke="white" stroke-width="1.5" rx="2.5"/>
<text x="206.0" y="241.0" font-family="system-ui,sans-serif" font-size="9.5" font-weight="500" fill="#fff" text-anchor="middle">3.740%</text>
<rect x="244.0" y="222.0" width="72.0" height="30.0" fill="#bfd655" stroke="white" stroke-width="1.5" rx="2.5"/>
<text x="280.0" y="241.0" font-family="system-ui,sans-serif" font-size="9.5" font-weight="500" fill="#333" text-anchor="middle">0.494%</text>
<rect x="318.0" y="222.0" width="72.0" height="30.0" fill="#ffda31" stroke="white" stroke-width="1.5" rx="2.5"/>
<text x="354.0" y="241.0" font-family="system-ui,sans-serif" font-size="9.5" font-weight="500" fill="#fff" text-anchor="middle">1.008%</text>
<rect x="392.0" y="222.0" width="72.0" height="30.0" fill="#f8db35" stroke="white" stroke-width="1.5" rx="2.5"/>
<text x="428.0" y="241.0" font-family="system-ui,sans-serif" font-size="9.5" font-weight="500" fill="#fff" text-anchor="middle">0.950%</text>
<rect x="466.0" y="222.0" width="72.0" height="30.0" fill="#91d36f" stroke="white" stroke-width="1.5" rx="2.5"/>
<text x="502.0" y="241.0" font-family="system-ui,sans-serif" font-size="9.5" font-weight="500" fill="#333" text-anchor="middle">0.122%</text>
<rect x="540.0" y="222.0" width="72.0" height="30.0" fill="#e6da3f" stroke="white" stroke-width="1.5" rx="2.5"/>
<text x="576.0" y="241.0" font-family="system-ui,sans-serif" font-size="9.5" font-weight="500" fill="#fff" text-anchor="middle">0.803%</text>
<rect x="614.0" y="222.0" width="72.0" height="30.0" fill="#83d277" stroke="white" stroke-width="1.5" rx="2.5"/>
<text x="650.0" y="241.0" font-family="system-ui,sans-serif" font-size="9.5" font-weight="500" fill="#333" text-anchor="middle">0.011%</text>
<rect x="688.0" y="222.0" width="72.0" height="30.0" fill="#f8db35" stroke="white" stroke-width="1.5" rx="2.5"/>
<text x="724.0" y="241.0" font-family="system-ui,sans-serif" font-size="9.5" font-weight="500" fill="#fff" text-anchor="middle">0.950%</text>
<rect x="762.0" y="222.0" width="72.0" height="30.0" fill="#84d276" stroke="white" stroke-width="1.5" rx="2.5"/>
<text x="798.0" y="241.0" font-family="system-ui,sans-serif" font-size="9.5" font-weight="500" fill="#333" text-anchor="middle">0.020%</text>
<rect x="96.0" y="264.0" width="4.5" height="8.0" fill="#82d278"/>
<rect x="100.0" y="264.0" width="4.5" height="8.0" fill="#88d274"/>
<rect x="104.0" y="264.0" width="4.5" height="8.0" fill="#8ed371"/>
<rect x="108.0" y="264.0" width="4.5" height="8.0" fill="#94d36d"/>
<rect x="112.0" y="264.0" width="4.5" height="8.0" fill="#9bd46a"/>
<rect x="116.0" y="264.0" width="4.5" height="8.0" fill="#a1d466"/>
<rect x="120.0" y="264.0" width="4.5" height="8.0" fill="#a7d563"/>
<rect x="124.0" y="264.0" width="4.5" height="8.0" fill="#add55f"/>
<rect x="128.0" y="264.0" width="4.5" height="8.0" fill="#b4d65c"/>
<rect x="132.0" y="264.0" width="4.5" height="8.0" fill="#bad658"/>
<rect x="136.0" y="264.0" width="4.5" height="8.0" fill="#c0d755"/>
<rect x="140.0" y="264.0" width="4.5" height="8.0" fill="#c6d751"/>
<rect x="144.0" y="264.0" width="4.5" height="8.0" fill="#cdd84e"/>
<rect x="148.0" y="264.0" width="4.5" height="8.0" fill="#d3d84a"/>
<rect x="152.0" y="264.0" width="4.5" height="8.0" fill="#d9d947"/>
<rect x="156.0" y="264.0" width="4.5" height="8.0" fill="#dfd943"/>
<rect x="160.0" y="264.0" width="4.5" height="8.0" fill="#e6da3f"/>
<rect x="164.0" y="264.0" width="4.5" height="8.0" fill="#ecda3c"/>
<rect x="168.0" y="264.0" width="4.5" height="8.0" fill="#f2db39"/>
<rect x="172.0" y="264.0" width="4.5" height="8.0" fill="#f8db35"/>
<rect x="176.0" y="264.0" width="4.5" height="8.0" fill="#ffdc32"/>
<rect x="180.0" y="264.0" width="4.5" height="8.0" fill="#ffd42f"/>
<rect x="184.0" y="264.0" width="4.5" height="8.0" fill="#ffcb2c"/>
<rect x="188.0" y="264.0" width="4.5" height="8.0" fill="#ffc42a"/>
<rect x="192.0" y="264.0" width="4.5" height="8.0" fill="#ffbc28"/>
<rect x="196.0" y="264.0" width="4.5" height="8.0" fill="#ffb425"/>
<rect x="200.0" y="264.0" width="4.5" height="8.0" fill="#ffac23"/>
<rect x="204.0" y="264.0" width="4.5" height="8.0" fill="#ffa320"/>
<rect x="208.0" y="264.0" width="4.5" height="8.0" fill="#ff9c1e"/>
<rect x="212.0" y="264.0" width="4.5" height="8.0" fill="#ff941b"/>
<rect x="216.0" y="264.0" width="4.5" height="8.0" fill="#ff8c19"/>
<rect x="220.0" y="264.0" width="4.5" height="8.0" fill="#ff8416"/>
<rect x="224.0" y="264.0" width="4.5" height="8.0" fill="#ff7c13"/>
<rect x="228.0" y="264.0" width="4.5" height="8.0" fill="#ff7411"/>
<rect x="232.0" y="264.0" width="4.5" height="8.0" fill="#ff6c0f"/>
<rect x="236.0" y="264.0" width="4.5" height="8.0" fill="#ff640c"/>
<rect x="240.0" y="264.0" width="4.5" height="8.0" fill="#ff5c09"/>
<rect x="244.0" y="264.0" width="4.5" height="8.0" fill="#ff5307"/>
<rect x="248.0" y="264.0" width="4.5" height="8.0" fill="#ff4c05"/>
<rect x="252.0" y="264.0" width="4.5" height="8.0" fill="#ff4402"/>
<text x="96.0" y="283.0" font-family="system-ui,sans-serif" font-size="8.5" fill="#666">0%</text>
<text x="176.0" y="283.0" font-family="system-ui,sans-serif" font-size="8.5" fill="#666" text-anchor="middle">1%</text>
<text x="256.0" y="283.0" font-family="system-ui,sans-serif" font-size="8.5" fill="#666" text-anchor="end">2%+</text>
</svg>
