<svg xmlns="http://www.w3.org/2000/svg" viewBox="0 0 780 1138" width="780" height="1138">
<rect x="0.0" y="0.0" width="780.0" height="1138.0" fill="white" rx="8"/>
<text x="140.0" y="31.0" font-family="system-ui,sans-serif" font-size="14" font-weight="600" fill="#333">Record Speed (log-normal, ns/op)</text>
<text x="128.0" y="53.0" font-family="system-ui,sans-serif" font-size="12" fill="#444" text-anchor="end">h2histogram</text>
<rect x="140.0" y="41.0" width="555.0" height="16.0" fill="#f5f5f5" rx="3"/>
<rect x="140.0" y="41.0" width="10.4" height="16.0" fill="#E87D2B" rx="3" opacity="0.85"/>
<text x="158.4" y="53.0" font-family="system-ui,sans-serif" font-size="10" fill="#333" font-weight="500">1.43 ns</text>
<text x="128.0" y="74.0" font-family="system-ui,sans-serif" font-size="12" fill="#444" text-anchor="end">sparsehistogram</text>
<rect x="140.0" y="62.0" width="555.0" height="16.0" fill="#f5f5f5" rx="3"/>
<rect x="140.0" y="62.0" width="10.6" height="16.0" fill="#3FA7D6" rx="3" opacity="0.85"/>
<text x="158.6" y="74.0" font-family="system-ui,sans-serif" font-size="10" fill="#333" font-weight="500">1.46 ns</text>
<text x="128.0" y="95.0" font-family="system-ui,sans-serif" font-size="12" fill="#444" text-anchor="end">atomichistogram</text>
<rect x="140.0" y="83.0" width="555.0" height="16.0" fill="#f5f5f5" rx="3"/>
<rect x="140.0" y="83.0" width="10.9" height="16.0" fill="#2A9D5B" rx="3" opacity="0.85"/>
<text x="158.9" y="95.0" font-family="system-ui,sans-serif" font-size="10" fill="#333" font-weight="500">1.50 ns</text>
<text x="128.0" y="116.0" font-family="system-ui,sans-serif" font-size="12" fill="#444" text-anchor="end">base2histogram</text>
<rect x="140.0" y="104.0" width="555.0" height="16.0" fill="#f5f5f5" rx="3"/>
<rect x="140.0" y="104.0" width="13.4" height="16.0" fill="#4878CF" rx="3" opacity="0.85"/>
<text x="161.4" y="116.0" font-family="system-ui,sans-serif" font-size="10" fill="#333" font-weight="500">1.85 ns</text>
<text x="128.0" y="137.0" font-family="system-ui,sans-serif" font-size="12" fill="#444" text-anchor="end">hdrhistogram</text>
<rect x="140.0" y="125.0" width="555.0" height="16.0" fill="#f5f5f5" rx="3"/>
<rect x="140.0" y="125.0" width="15.8" height="16.0" fill="#D65F5F" rx="3" opacity="0.85"/>
<text x="163.8" y="137.0" font-family="system-ui,sans-serif" font-size="10" fill="#333" font-weight="500">2.17 ns</text>
<text x="128.0" y="158.0" font-family="system-ui,sans-serif" font-size="12" fill="#444" text-anchor="end">ddsketch</text>
<rect x="140.0" y="146.0" width="555.0" height="16.0" fill="#f5f5f5" rx="3"/>
<rect x="140.0" y="146.0" width="32.5" height="16.0" fill="#D4A942" rx="3" opacity="0.85"/>
<text x="180.5" y="158.0" font-family="system-ui,sans-serif" font-size="10" fill="#333" font-weight="500">4.47 ns</text>
<text x="128.0" y="179.0" font-family="system-ui,sans-serif" font-size="12" fill="#444" text-anchor="end">metricssummary</text>
<rect x="140.0" y="167.0" width="555.0" height="16.0" fill="#f5f5f5" rx="3"/>
<rect x="140.0" y="167.0" width="33.5" height="16.0" fill="#2F7F6F" rx="3" opacity="0.85"/>
<text x="181.5" y="179.0" font-family="system-ui,sans-serif" font-size="10" fill="#333" font-weight="500">4.61 ns</text>
<text x="128.0" y="200.0" font-family="system-ui,sans-serif" font-size="12" fill="#444" text-anchor="end">tdigest</text>
<rect x="140.0" y="188.0" width="555.0" height="16.0" fill="#f5f5f5" rx="3"/>
<rect x="140.0" y="188.0" width="115.3" height="16.0" fill="#9F7FBA" rx="3" opacity="0.85"/>
<text x="263.3" y="200.0" font-family="system-ui,sans-serif" font-size="10" fill="#333" font-weight="500">15.9 ns</text>
<text x="128.0" y="221.0" font-family="system-ui,sans-serif" font-size="12" fill="#444" text-anchor="end">reqsketch</text>
<rect x="140.0" y="209.0" width="555.0" height="16.0" fill="#f5f5f5" rx="3"/>
<rect x="140.0" y="209.0" width="241.1" height="16.0" fill="#4E9AA8" rx="3" opacity="0.85"/>
<text x="389.1" y="221.0" font-family="system-ui,sans-serif" font-size="10" fill="#333" font-weight="500">33.2 ns</text>
<text x="128.0" y="242.0" font-family="system-ui,sans-serif" font-size="12" fill="#444" text-anchor="end">quantogram</text>
<rect x="140.0" y="230.0" width="555.0" height="16.0" fill="#f5f5f5" rx="3"/>
<rect x="140.0" y="230.0" width="519.2" height="16.0" fill="#56A354" rx="3" opacity="0.85"/>
<text x="667.2" y="242.0" font-family="system-ui,sans-serif" font-size="10" fill="#333" font-weight="500">71.5 ns</text>
<text x="128.0" y="263.0" font-family="system-ui,sans-serif" font-size="12" fill="#444" text-anchor="end">gkstream</text>
<rect x="140.0" y="251.0" width="555.0" height="16.0" fill="#f5f5f5" rx="3"/>
<rect x="140.0" y="251.0" width="555.0" height="16.0" fill="#2D9D8F" rx="3" opacity="0.85"/>
<text x="703.0" y="263.0" font-family="system-ui,sans-serif" font-size="10" fill="#333" font-weight="500">76.4 ns</text>
<text x="140.0" y="309.0" font-family="system-ui,sans-serif" font-size="14" font-weight="600" fill="#333">P99 Query Latency (ns/op)</text>
<text x="128.0" y="331.0" font-family="system-ui,sans-serif" font-size="12" fill="#444" text-anchor="end">tdigest</text>
<rect x="140.0" y="319.0" width="555.0" height="16.0" fill="#f5f5f5" rx="3"/>
<rect x="140.0" y="319.0" width="5.3" height="16.0" fill="#9F7FBA" rx="3" opacity="0.85"/>
<text x="153.3" y="331.0" font-family="system-ui,sans-serif" font-size="10" fill="#333" font-weight="500">4.51 ns</text>
<text x="128.0" y="352.0" font-family="system-ui,sans-serif" font-size="12" fill="#444" text-anchor="end">reqsketch</text>
<rect x="140.0" y="340.0" width="555.0" height="16.0" fill="#f5f5f5" rx="3"/>
<rect x="140.0" y="340.0" width="11.5" height="16.0" fill="#4E9AA8" rx="3" opacity="0.85"/>
<text x="159.5" y="352.0" font-family="system-ui,sans-serif" font-size="10" fill="#333" font-weight="500">9.88 ns</text>
<text x="128.0" y="373.0" font-family="system-ui,sans-serif" font-size="12" fill="#444" text-anchor="end">base2histogram</text>
<rect x="140.0" y="361.0" width="555.0" height="16.0" fill="#f5f5f5" rx="3"/>
<rect x="140.0" y="361.0" width="15.7" height="16.0" fill="#4878CF" rx="3" opacity="0.85"/>
<text x="163.7" y="373.0" font-family="system-ui,sans-serif" font-size="10" fill="#333" font-weight="500">13.5 ns</text>
<text x="128.0" y="394.0" font-family="system-ui,sans-serif" font-size="12" fill="#444" text-anchor="end">gkstream</text>
<rect x="140.0" y="382.0" width="555.0" height="16.0" fill="#f5f5f5" rx="3"/>
<rect x="140.0" y="382.0" width="28.0" height="16.0" fill="#2D9D8F" rx="3" opacity="0.85"/>
<text x="176.0" y="394.0" font-family="system-ui,sans-serif" font-size="10" fill="#333" font-weight="500">24.0 ns</text>
<text x="128.0" y="415.0" font-family="system-ui,sans-serif" font-size="12" fill="#444" text-anchor="end">metricssummary</text>
<rect x="140.0" y="403.0" width="555.0" height="16.0" fill="#f5f5f5" rx="3"/>
<rect x="140.0" y="403.0" width="86.5" height="16.0" fill="#2F7F6F" rx="3" opacity="0.85"/>
<text x="234.5" y="415.0" font-family="system-ui,sans-serif" font-size="10" fill="#333" font-weight="500">74.3 ns</text>
<text x="128.0" y="436.0" font-family="system-ui,sans-serif" font-size="12" fill="#444" text-anchor="end">quantogram</text>
<rect x="140.0" y="424.0" width="555.0" height="16.0" fill="#f5f5f5" rx="3"/>
<rect x="140.0" y="424.0" width="89.1" height="16.0" fill="#56A354" rx="3" opacity="0.85"/>
<text x="237.1" y="436.0" font-family="system-ui,sans-serif" font-size="10" fill="#333" font-weight="500">76.6 ns</text>
<text x="128.0" y="457.0" font-family="system-ui,sans-serif" font-size="12" fill="#444" text-anchor="end">ddsketch</text>
<rect x="140.0" y="445.0" width="555.0" height="16.0" fill="#f5f5f5" rx="3"/>
<rect x="140.0" y="445.0" width="95.4" height="16.0" fill="#D4A942" rx="3" opacity="0.85"/>
<text x="243.4" y="457.0" font-family="system-ui,sans-serif" font-size="10" fill="#333" font-weight="500">82.0 ns</text>
<text x="128.0" y="478.0" font-family="system-ui,sans-serif" font-size="12" fill="#444" text-anchor="end">hdrhistogram</text>
<rect x="140.0" y="466.0" width="555.0" height="16.0" fill="#f5f5f5" rx="3"/>
<rect x="140.0" y="466.0" width="204.6" height="16.0" fill="#D65F5F" rx="3" opacity="0.85"/>
<text x="352.6" y="478.0" font-family="system-ui,sans-serif" font-size="10" fill="#333" font-weight="500">175.8 ns</text>
<text x="128.0" y="499.0" font-family="system-ui,sans-serif" font-size="12" fill="#444" text-anchor="end">sparsehistogram</text>
<rect x="140.0" y="487.0" width="555.0" height="16.0" fill="#f5f5f5" rx="3"/>
<rect x="140.0" y="487.0" width="274.7" height="16.0" fill="#3FA7D6" rx="3" opacity="0.85"/>
<text x="422.7" y="499.0" font-family="system-ui,sans-serif" font-size="10" fill="#333" font-weight="500">236.1 ns</text>
<text x="128.0" y="520.0" font-family="system-ui,sans-serif" font-size="12" fill="#444" text-anchor="end">atomichistogram</text>
<rect x="140.0" y="508.0" width="555.0" height="16.0" fill="#f5f5f5" rx="3"/>
<rect x="140.0" y="508.0" width="546.2" height="16.0" fill="#2A9D5B" rx="3" opacity="0.85"/>
<text x="694.2" y="520.0" font-family="system-ui,sans-serif" font-size="10" fill="#333" font-weight="500">469.4 ns</text>
<text x="128.0" y="541.0" font-family="system-ui,sans-serif" font-size="12" fill="#444" text-anchor="end">h2histogram</text>
<rect x="140.0" y="529.0" width="555.0" height="16.0" fill="#f5f5f5" rx="3"/>
<rect x="140.0" y="529.0" width="555.0" height="16.0" fill="#E87D2B" rx="3" opacity="0.85"/>
<text x="703.0" y="541.0" font-family="system-ui,sans-serif" font-size="10" fill="#333" font-weight="500">476.9 ns</text>
<text x="140.0" y="587.0" font-family="system-ui,sans-serif" font-size="14" font-weight="600" fill="#333">Memory Usage (bytes)</text>
<text x="128.0" y="609.0" font-family="system-ui,sans-serif" font-size="12" fill="#444" text-anchor="end">sparsehistogram</text>
<rect x="140.0" y="597.0" width="555.0" height="16.0" fill="#f5f5f5" rx="3"/>
<rect x="140.0" y="597.0" width="13.4" height="16.0" fill="#3FA7D6" rx="3" opacity="0.85"/>
<text x="161.4" y="609.0" font-family="system-ui,sans-serif" font-size="10" fill="#333" font-weight="500">1.5 KB</text>
<text x="128.0" y="630.0" font-family="system-ui,sans-serif" font-size="12" fill="#444" text-anchor="end">ddsketch</text>
<rect x="140.0" y="618.0" width="555.0" height="16.0" fill="#f5f5f5" rx="3"/>
<rect x="140.0" y="618.0" width="17.9" height="16.0" fill="#D4A942" rx="3" opacity="0.85"/>
<text x="165.9" y="630.0" font-family="system-ui,sans-serif" font-size="10" fill="#333" font-weight="500">2.0 KB</text>
<text x="128.0" y="651.0" font-family="system-ui,sans-serif" font-size="12" fill="#444" text-anchor="end">metricssummary</text>
<rect x="140.0" y="639.0" width="555.0" height="16.0" fill="#f5f5f5" rx="3"/>
<rect x="140.0" y="639.0" width="17.9" height="16.0" fill="#2F7F6F" rx="3" opacity="0.85"/>
<text x="165.9" y="651.0" font-family="system-ui,sans-serif" font-size="10" fill="#333" font-weight="500">2.0 KB</text>
<text x="128.0" y="672.0" font-family="system-ui,sans-serif" font-size="12" fill="#444" text-anchor="end">base2histogram</text>
<rect x="140.0" y="660.0" width="555.0" height="16.0" fill="#f5f5f5" rx="3"/>
<rect x="140.0" y="660.0" width="18.8" height="16.0" fill="#4878CF" rx="3" opacity="0.85"/>
<text x="166.8" y="672.0" font-family="system-ui,sans-serif" font-size="10" fill="#333" font-weight="500">2.1 KB</text>
<text x="128.0" y="693.0" font-family="system-ui,sans-serif" font-size="12" fill="#444" text-anchor="end">gkstream</text>
<rect x="140.0" y="681.0" width="555.0" height="16.0" fill="#f5f5f5" rx="3"/>
<rect x="140.0" y="681.0" width="53.8" height="16.0" fill="#2D9D8F" rx="3" opacity="0.85"/>
<text x="201.8" y="693.0" font-family="system-ui,sans-serif" font-size="10" fill="#333" font-weight="500">6.0 KB</text>
<text x="128.0" y="714.0" font-family="system-ui,sans-serif" font-size="12" fill="#444" text-anchor="end">atomichistogram</text>
<rect x="140.0" y="702.0" width="555.0" height="16.0" fill="#f5f5f5" rx="3"/>
<rect x="140.0" y="702.0" width="68.3" height="16.0" fill="#2A9D5B" rx="3" opacity="0.85"/>
<text x="216.3" y="714.0" font-family="system-ui,sans-serif" font-size="10" fill="#333" font-weight="500">7.6 KB</text>
<text x="128.0" y="735.0" font-family="system-ui,sans-serif" font-size="12" fill="#444" text-anchor="end">h2histogram</text>
<rect x="140.0" y="723.0" width="555.0" height="16.0" fill="#f5f5f5" rx="3"/>
<rect x="140.0" y="723.0" width="68.3" height="16.0" fill="#E87D2B" rx="3" opacity="0.85"/>
<text x="216.3" y="735.0" font-family="system-ui,sans-serif" font-size="10" fill="#333" font-weight="500">7.6 KB</text>
<text x="128.0" y="756.0" font-family="system-ui,sans-serif" font-size="12" fill="#444" text-anchor="end">tdigest</text>
<rect x="140.0" y="744.0" width="555.0" height="16.0" fill="#f5f5f5" rx="3"/>
<rect x="140.0" y="744.0" width="84.0" height="16.0" fill="#9F7FBA" rx="3" opacity="0.85"/>
<text x="232.0" y="756.0" font-family="system-ui,sans-serif" font-size="10" fill="#333" font-weight="500">9.4 KB</text>
<text x="128.0" y="777.0" font-family="system-ui,sans-serif" font-size="12" fill="#444" text-anchor="end">hdrhistogram</text>
<rect x="140.0" y="765.0" width="555.0" height="16.0" fill="#f5f5f5" rx="3"/>
<rect x="140.0" y="765.0" width="134.4" height="16.0" fill="#D65F5F" rx="3" opacity="0.85"/>
<text x="282.4" y="777.0" font-family="system-ui,sans-serif" font-size="10" fill="#333" font-weight="500">15.0 KB</text>
<text x="128.0" y="798.0" font-family="system-ui,sans-serif" font-size="12" fill="#444" text-anchor="end">quantogram</text>
<rect x="140.0" y="786.0" width="555.0" height="16.0" fill="#f5f5f5" rx="3"/>
<rect x="140.0" y="786.0" width="282.4" height="16.0" fill="#56A354" rx="3" opacity="0.85"/>
<text x="430.4" y="798.0" font-family="system-ui,sans-serif" font-size="10" fill="#333" font-weight="500">31.5 KB</text>
<text x="128.0" y="819.0" font-family="system-ui,sans-serif" font-size="12" fill="#444" text-anchor="end">reqsketch</text>
<rect x="140.0" y="807.0" width="555.0" height="16.0" fill="#f5f5f5" rx="3"/>
<rect x="140.0" y="807.0" width="555.0" height="16.0" fill="#4E9AA8" rx="3" opacity="0.85"/>
<text x="703.0" y="819.0" font-family="system-ui,sans-serif" font-size="10" fill="#333" font-weight="500">61.9 KB</text>
<text x="140.0" y="865.0" font-family="system-ui,sans-serif" font-size="14" font-weight="600" fill="#333">Merge Latency (ns/op)</text>
<text x="695.0" y="865.0" font-family="system-ui,sans-serif" font-size="10" fill="#777" text-anchor="end" font-style="italic">1 off-scale hidden</text>
<text x="128.0" y="887.0" font-family="system-ui,sans-serif" font-size="12" fill="#444" text-anchor="end">base2histogram</text>
<rect x="140.0" y="875.0" width="555.0" height="16.0" fill="#f5f5f5" rx="3"/>
<rect x="140.0" y="875.0" width="16.1" height="16.0" fill="#4878CF" rx="3" opacity="0.85"/>
<text x="164.1" y="887.0" font-family="system-ui,sans-serif" font-size="10" fill="#333" font-weight="500">34.8 ns</text>
<text x="128.0" y="908.0" font-family="system-ui,sans-serif" font-size="12" fill="#444" text-anchor="end">metricssummary</text>
<rect x="140.0" y="896.0" width="555.0" height="16.0" fill="#f5f5f5" rx="3"/>
<rect x="140.0" y="896.0" width="64.5" height="16.0" fill="#2F7F6F" rx="3" opacity="0.85"/>
<text x="212.5" y="908.0" font-family="system-ui,sans-serif" font-size="10" fill="#333" font-weight="500">139.9 ns</text>
<text x="128.0" y="929.0" font-family="system-ui,sans-serif" font-size="12" fill="#444" text-anchor="end">ddsketch</text>
<rect x="140.0" y="917.0" width="555.0" height="16.0" fill="#f5f5f5" rx="3"/>
<rect x="140.0" y="917.0" width="67.7" height="16.0" fill="#D4A942" rx="3" opacity="0.85"/>
<text x="215.7" y="929.0" font-family="system-ui,sans-serif" font-size="10" fill="#333" font-weight="500">146.8 ns</text>
<text x="128.0" y="950.0" font-family="system-ui,sans-serif" font-size="12" fill="#444" text-anchor="end">h2histogram</text>
<rect x="140.0" y="938.0" width="555.0" height="16.0" fill="#f5f5f5" rx="3"/>
<rect x="140.0" y="938.0" width="99.5" height="16.0" fill="#E87D2B" rx="3" opacity="0.85"/>
<text x="247.5" y="950.0" font-family="system-ui,sans-serif" font-size="10" fill="#333" font-weight="500">215.7 ns</text>
<text x="128.0" y="971.0" font-family="system-ui,sans-serif" font-size="12" fill="#444" text-anchor="end">sparsehistogram</text>
<rect x="140.0" y="959.0" width="555.0" height="16.0" fill="#f5f5f5" rx="3"/>
<rect x="140.0" y="959.0" width="261.6" height="16.0" fill="#3FA7D6" rx="3" opacity="0.85"/>
<text x="409.6" y="971.0" font-family="system-ui,sans-serif" font-size="10" fill="#333" font-weight="500">567.2 ns</text>
<text x="128.0" y="992.0" font-family="system-ui,sans-serif" font-size="12" fill="#444" text-anchor="end">hdrhistogram</text>
<rect x="140.0" y="980.0" width="555.0" height="16.0" fill="#f5f5f5" rx="3"/>
<rect x="140.0" y="980.0" width="366.8" height="16.0" fill="#D65F5F" rx="3" opacity="0.85"/>
<text x="514.8" y="992.0" font-family="system-ui,sans-serif" font-size="10" fill="#333" font-weight="500">795.2 ns</text>
<text x="128.0" y="1013.0" font-family="system-ui,sans-serif" font-size="12" fill="#444" text-anchor="end">tdigest</text>
<rect x="140.0" y="1001.0" width="555.0" height="16.0" fill="#f5f5f5" rx="3"/>
<rect x="140.0" y="1001.0" width="555.0" height="16.0" fill="#9F7FBA" rx="3" opacity="0.85"/>
<text x="703.0" y="1013.0" font-family="system-ui,sans-serif" font-size="10" fill="#333" font-weight="500">1203 ns</text>
<text x="128.0" y="1034.0" font-family="system-ui,sans-serif" font-size="12" fill="#444" text-anchor="end">reqsketch</text>
<rect x="140.0" y="1022.0" width="555.0" height="16.0" fill="#fbfbfb" stroke="#e3e3e3" stroke-width="1" stroke-dasharray="2 2" rx="3"/>
<text x="148.0" y="1034.0" font-family="system-ui,sans-serif" font-size="10" fill="#888" font-style="italic">off-scale</text>
<text x="689.0" y="1034.0" font-family="system-ui,sans-serif" font-size="10" fill="#666" text-anchor="end">44739 ns</text>
<text x="128.0" y="1055.0" font-family="system-ui,sans-serif" font-size="12" fill="#444" text-anchor="end">atomichistogram</text>
<text x="148.0" y="1055.0" font-family="system-ui,sans-serif" font-size="11" fill="#999" font-style="italic">N/A</text>
<text x="128.0" y="1076.0" font-family="system-ui,sans-serif" font-size="12" fill="#444" text-anchor="end">gkstream</text>
<text x="148.0" y="1076.0" font-family="system-ui,sans-serif" font-size="11" fill="#999" font-style="italic">N/A</text>
<text x="128.0" y="1097.0" font-family="system-ui,sans-serif" font-size="12" fill="#444" text-anchor="end">quantogram</text>
<text x="148.0" y="1097.0" font-family="system-ui,sans-serif" font-size="11" fill="#999" font-style="italic">N/A</text>
</svg>
