<svg xmlns="http://www.w3.org/2000/svg" viewBox="0 0 240 210" width="240" height="210">
<rect x="0.0" y="0.0" width="240.0" height="210.0" fill="white" rx="6"/>
<text x="130.0" y="18.0" font-family="system-ui,sans-serif" font-size="13" font-weight="600" fill="#4878CF" text-anchor="middle">base2histogram</text>
<polygon points="130.0,105.6 141.8,114.2 137.3,128.0 122.7,128.0 118.2,114.2" fill="none" stroke="#e8e8e8" stroke-width="0.5"/>
<polygon points="130.0,93.2 153.6,110.3 144.6,138.1 115.4,138.1 106.4,110.3" fill="none" stroke="#e8e8e8" stroke-width="0.5"/>
<polygon points="130.0,80.8 165.4,106.5 151.9,148.1 108.1,148.1 94.6,106.5" fill="none" stroke="#e8e8e8" stroke-width="0.5"/>
<polygon points="130.0,68.4 177.2,102.7 159.2,158.1 100.8,158.1 82.8,102.7" fill="none" stroke="#e8e8e8" stroke-width="0.5"/>
<polygon points="130.0,56.0 189.0,98.8 166.4,168.2 93.6,168.2 71.0,98.8" fill="none" stroke="#e8e8e8" stroke-width="0.5"/>
<line x1="130" y1="118" x2="130.0" y2="56.0" stroke="#ddd" stroke-width="0.5"/>
<line x1="130" y1="118" x2="189.0" y2="98.8" stroke="#ddd" stroke-width="0.5"/>
<line x1="130" y1="118" x2="166.4" y2="168.2" stroke="#ddd" stroke-width="0.5"/>
<line x1="130" y1="118" x2="93.6" y2="168.2" stroke="#ddd" stroke-width="0.5"/>
<line x1="130" y1="118" x2="71.0" y2="98.8" stroke="#ddd" stroke-width="0.5"/>
<text x="130.0" y="44.0" font-family="system-ui,sans-serif" font-size="9.5" fill="#999" text-anchor="middle">Record</text>
<text x="204.2" y="97.9" font-family="system-ui,sans-serif" font-size="9.5" fill="#999" text-anchor="start">Query</text>
<text x="175.8" y="185.1" font-family="system-ui,sans-serif" font-size="9.5" fill="#999" text-anchor="start">Lightweight</text>
<text x="84.2" y="185.1" font-family="system-ui,sans-serif" font-size="9.5" fill="#999" text-anchor="end">Merge</text>
<text x="55.8" y="97.9" font-family="system-ui,sans-serif" font-size="9.5" fill="#999" text-anchor="end">Accuracy</text>
<polygon points="130.0,59.9 174.5,103.5 162.9,163.3 93.6,168.2 89.6,104.9" fill="#4878CF" fill-opacity="0.20" stroke="#4878CF" stroke-width="1.3"/>
<circle cx="130.0" cy="59.9" r="2" fill="#4878CF"/>
<circle cx="174.5" cy="103.5" r="2" fill="#4878CF"/>
<circle cx="162.9" cy="163.3" r="2" fill="#4878CF"/>
<circle cx="93.6" cy="168.2" r="2" fill="#4878CF"/>
<circle cx="89.6" cy="104.9" r="2" fill="#4878CF"/>
</svg>
