<svg xmlns="http://www.w3.org/2000/svg" viewBox="0 0 240 210" width="240" height="210">
<rect x="0.0" y="0.0" width="240.0" height="210.0" fill="white" rx="6"/>
<text x="125.0" y="28.0" font-family="system-ui,sans-serif" font-size="18" font-weight="600" fill="#56A354" text-anchor="middle">quantogram</text>
<polygon points="125.0,106.2 133.4,112.3 130.2,122.1 119.8,122.1 116.6,112.3" fill="none" stroke="#e8e8e8" stroke-width="0.5"/>
<polygon points="125.0,97.4 141.7,109.6 135.3,129.2 114.7,129.2 108.3,109.6" fill="none" stroke="#e8e8e8" stroke-width="0.5"/>
<polygon points="125.0,88.6 150.1,106.8 140.5,136.4 109.5,136.4 99.9,106.8" fill="none" stroke="#e8e8e8" stroke-width="0.5"/>
<polygon points="125.0,79.8 158.5,104.1 145.7,143.5 104.3,143.5 91.5,104.1" fill="none" stroke="#e8e8e8" stroke-width="0.5"/>
<polygon points="125.0,71.0 166.8,101.4 150.9,150.6 99.1,150.6 83.2,101.4" fill="none" stroke="#d0d0d0" stroke-width="0.8"/>
<line x1="125" y1="115" x2="125.0" y2="71.0" stroke="#ddd" stroke-width="0.5"/>
<line x1="125" y1="115" x2="166.8" y2="101.4" stroke="#ddd" stroke-width="0.5"/>
<line x1="125" y1="115" x2="150.9" y2="150.6" stroke="#ddd" stroke-width="0.5"/>
<line x1="125" y1="115" x2="99.1" y2="150.6" stroke="#ddd" stroke-width="0.5"/>
<line x1="125" y1="115" x2="83.2" y2="101.4" stroke="#ddd" stroke-width="0.5"/>
<text x="125.0" y="66.0" font-family="system-ui,sans-serif" font-size="15" fill="#999" text-anchor="middle">Record</text>
<text x="176.4" y="103.3" font-family="system-ui,sans-serif" font-size="15" fill="#999" text-anchor="start">Query</text>
<text x="156.7" y="163.7" font-family="system-ui,sans-serif" font-size="15" fill="#999" text-anchor="start">Lightweight</text>
<text x="93.3" y="163.7" font-family="system-ui,sans-serif" font-size="15" fill="#999" text-anchor="end">Merge</text>
<text x="73.6" y="103.3" font-family="system-ui,sans-serif" font-size="15" fill="#999" text-anchor="end">Accuracy</text>
<polygon points="125.0,111.5 141.4,109.7 129.7,121.5 122.9,117.8 94.3,105.0" fill="#56A354" fill-opacity="0.20" stroke="#56A354" stroke-width="1.5"/>
<circle cx="125.0" cy="111.5" r="3" fill="#56A354"/>
<circle cx="141.4" cy="109.7" r="3" fill="#56A354"/>
<circle cx="129.7" cy="121.5" r="3" fill="#56A354"/>
<circle cx="122.9" cy="117.8" r="3" fill="#56A354"/>
<circle cx="94.3" cy="105.0" r="3" fill="#56A354"/>
</svg>
