<svg xmlns="http://www.w3.org/2000/svg" viewBox="0 0 760 405" width="760" height="405">
<rect x="0.0" y="0.0" width="760.0" height="405.0" fill="white" rx="8"/>
<text x="380.0" y="24.0" font-family="system-ui,sans-serif" font-size="14" font-weight="600" fill="#333" text-anchor="middle">P99 Accuracy Error %</text>
<text x="155.0" y="128.0" font-family="system-ui,sans-serif" font-size="11" fill="#444" text-anchor="start" transform="rotate(-55,155.0,128.0)">base2histogram</text>
<text x="245.0" y="128.0" font-family="system-ui,sans-serif" font-size="11" fill="#444" text-anchor="start" transform="rotate(-55,245.0,128.0)">ddsketch</text>
<text x="335.0" y="128.0" font-family="system-ui,sans-serif" font-size="11" fill="#444" text-anchor="start" transform="rotate(-55,335.0,128.0)">h2histogram</text>
<text x="425.0" y="128.0" font-family="system-ui,sans-serif" font-size="11" fill="#444" text-anchor="start" transform="rotate(-55,425.0,128.0)">hdrhistogram</text>
<text x="515.0" y="128.0" font-family="system-ui,sans-serif" font-size="11" fill="#444" text-anchor="start" transform="rotate(-55,515.0,128.0)">quantogram</text>
<text x="605.0" y="128.0" font-family="system-ui,sans-serif" font-size="11" fill="#444" text-anchor="start" transform="rotate(-55,605.0,128.0)">reqsketch</text>
<text x="695.0" y="128.0" font-family="system-ui,sans-serif" font-size="11" fill="#444" text-anchor="start" transform="rotate(-55,695.0,128.0)">tdigest</text>
<text x="100.0" y="165.0" font-family="system-ui,sans-serif" font-size="11" fill="#444" text-anchor="end">Log-Normal</text>
<rect x="110.0" y="140.0" width="88.0" height="42.0" fill="#82d278" stroke="white" stroke-width="2" rx="3"/>
<text x="154.0" y="165.0" font-family="system-ui,sans-serif" font-size="10" font-weight="500" fill="#333" text-anchor="middle">0.000%</text>
<rect x="200.0" y="140.0" width="88.0" height="42.0" fill="#e3d941" stroke="white" stroke-width="2" rx="3"/>
<text x="244.0" y="165.0" font-family="system-ui,sans-serif" font-size="10" font-weight="500" fill="#333" text-anchor="middle">0.782%</text>
<rect x="290.0" y="140.0" width="88.0" height="42.0" fill="#ff7712" stroke="white" stroke-width="2" rx="3"/>
<text x="334.0" y="165.0" font-family="system-ui,sans-serif" font-size="10" font-weight="500" fill="#fff" text-anchor="middle">1.628%</text>
<rect x="380.0" y="140.0" width="88.0" height="42.0" fill="#b2d55c" stroke="white" stroke-width="2" rx="3"/>
<text x="424.0" y="165.0" font-family="system-ui,sans-serif" font-size="10" font-weight="500" fill="#333" text-anchor="middle">0.388%</text>
<rect x="470.0" y="140.0" width="88.0" height="42.0" fill="#a8d562" stroke="white" stroke-width="2" rx="3"/>
<text x="514.0" y="165.0" font-family="system-ui,sans-serif" font-size="10" font-weight="500" fill="#333" text-anchor="middle">0.310%</text>
<rect x="560.0" y="140.0" width="88.0" height="42.0" fill="#a8d562" stroke="white" stroke-width="2" rx="3"/>
<text x="604.0" y="165.0" font-family="system-ui,sans-serif" font-size="10" font-weight="500" fill="#333" text-anchor="middle">0.310%</text>
<rect x="650.0" y="140.0" width="88.0" height="42.0" fill="#9dd468" stroke="white" stroke-width="2" rx="3"/>
<text x="694.0" y="165.0" font-family="system-ui,sans-serif" font-size="10" font-weight="500" fill="#333" text-anchor="middle">0.223%</text>
<text x="100.0" y="207.0" font-family="system-ui,sans-serif" font-size="11" fill="#444" text-anchor="end">Bimodal</text>
<rect x="110.0" y="182.0" width="88.0" height="42.0" fill="#84d276" stroke="white" stroke-width="2" rx="3"/>
<text x="154.0" y="207.0" font-family="system-ui,sans-serif" font-size="10" font-weight="500" fill="#333" text-anchor="middle">0.018%</text>
<rect x="200.0" y="182.0" width="88.0" height="42.0" fill="#fedb32" stroke="white" stroke-width="2" rx="3"/>
<text x="244.0" y="207.0" font-family="system-ui,sans-serif" font-size="10" font-weight="500" fill="#fff" text-anchor="middle">0.999%</text>
<rect x="290.0" y="182.0" width="88.0" height="42.0" fill="#ff5508" stroke="white" stroke-width="2" rx="3"/>
<text x="334.0" y="207.0" font-family="system-ui,sans-serif" font-size="10" font-weight="500" fill="#fff" text-anchor="middle">1.839%</text>
<rect x="380.0" y="182.0" width="88.0" height="42.0" fill="#93d36e" stroke="white" stroke-width="2" rx="3"/>
<text x="424.0" y="207.0" font-family="system-ui,sans-serif" font-size="10" font-weight="500" fill="#333" text-anchor="middle">0.141%</text>
<rect x="470.0" y="182.0" width="88.0" height="42.0" fill="#b7d65a" stroke="white" stroke-width="2" rx="3"/>
<text x="514.0" y="207.0" font-family="system-ui,sans-serif" font-size="10" font-weight="500" fill="#333" text-anchor="middle">0.424%</text>
<rect x="560.0" y="182.0" width="88.0" height="42.0" fill="#84d276" stroke="white" stroke-width="2" rx="3"/>
<text x="604.0" y="207.0" font-family="system-ui,sans-serif" font-size="10" font-weight="500" fill="#333" text-anchor="middle">0.018%</text>
<rect x="650.0" y="182.0" width="88.0" height="42.0" fill="#99d36b" stroke="white" stroke-width="2" rx="3"/>
<text x="694.0" y="207.0" font-family="system-ui,sans-serif" font-size="10" font-weight="500" fill="#333" text-anchor="middle">0.184%</text>
<text x="100.0" y="249.0" font-family="system-ui,sans-serif" font-size="11" fill="#444" text-anchor="end">Exponential</text>
<rect x="110.0" y="224.0" width="88.0" height="42.0" fill="#92d36e" stroke="white" stroke-width="2" rx="3"/>
<text x="154.0" y="249.0" font-family="system-ui,sans-serif" font-size="10" font-weight="500" fill="#333" text-anchor="middle">0.130%</text>
<rect x="200.0" y="224.0" width="88.0" height="42.0" fill="#b4d65b" stroke="white" stroke-width="2" rx="3"/>
<text x="244.0" y="249.0" font-family="system-ui,sans-serif" font-size="10" font-weight="500" fill="#333" text-anchor="middle">0.401%</text>
<rect x="290.0" y="224.0" width="88.0" height="42.0" fill="#ff3c00" stroke="white" stroke-width="2" rx="3"/>
<text x="334.0" y="249.0" font-family="system-ui,sans-serif" font-size="10" font-weight="500" fill="#fff" text-anchor="middle">2.673%</text>
<rect x="380.0" y="224.0" width="88.0" height="42.0" fill="#8fd370" stroke="white" stroke-width="2" rx="3"/>
<text x="424.0" y="249.0" font-family="system-ui,sans-serif" font-size="10" font-weight="500" fill="#333" text-anchor="middle">0.109%</text>
<rect x="470.0" y="224.0" width="88.0" height="42.0" fill="#ded944" stroke="white" stroke-width="2" rx="3"/>
<text x="514.0" y="249.0" font-family="system-ui,sans-serif" font-size="10" font-weight="500" fill="#333" text-anchor="middle">0.739%</text>
<rect x="560.0" y="224.0" width="88.0" height="42.0" fill="#92d36e" stroke="white" stroke-width="2" rx="3"/>
<text x="604.0" y="249.0" font-family="system-ui,sans-serif" font-size="10" font-weight="500" fill="#333" text-anchor="middle">0.130%</text>
<rect x="650.0" y="224.0" width="88.0" height="42.0" fill="#90d36f" stroke="white" stroke-width="2" rx="3"/>
<text x="694.0" y="249.0" font-family="system-ui,sans-serif" font-size="10" font-weight="500" fill="#333" text-anchor="middle">0.118%</text>
<text x="100.0" y="291.0" font-family="system-ui,sans-serif" font-size="11" fill="#444" text-anchor="end">Pareto</text>
<rect x="110.0" y="266.0" width="88.0" height="42.0" fill="#82d278" stroke="white" stroke-width="2" rx="3"/>
<text x="154.0" y="291.0" font-family="system-ui,sans-serif" font-size="10" font-weight="500" fill="#333" text-anchor="middle">0.000%</text>
<rect x="200.0" y="266.0" width="88.0" height="42.0" fill="#c7d751" stroke="white" stroke-width="2" rx="3"/>
<text x="244.0" y="291.0" font-family="system-ui,sans-serif" font-size="10" font-weight="500" fill="#333" text-anchor="middle">0.554%</text>
<rect x="290.0" y="266.0" width="88.0" height="42.0" fill="#82d278" stroke="white" stroke-width="2" rx="3"/>
<text x="334.0" y="291.0" font-family="system-ui,sans-serif" font-size="10" font-weight="500" fill="#333" text-anchor="middle">0.000%</text>
<rect x="380.0" y="266.0" width="88.0" height="42.0" fill="#82d278" stroke="white" stroke-width="2" rx="3"/>
<text x="424.0" y="291.0" font-family="system-ui,sans-serif" font-size="10" font-weight="500" fill="#333" text-anchor="middle">0.000%</text>
<rect x="470.0" y="266.0" width="88.0" height="42.0" fill="#82d278" stroke="white" stroke-width="2" rx="3"/>
<text x="514.0" y="291.0" font-family="system-ui,sans-serif" font-size="10" font-weight="500" fill="#333" text-anchor="middle">0.000%</text>
<rect x="560.0" y="266.0" width="88.0" height="42.0" fill="#82d278" stroke="white" stroke-width="2" rx="3"/>
<text x="604.0" y="291.0" font-family="system-ui,sans-serif" font-size="10" font-weight="500" fill="#333" text-anchor="middle">0.000%</text>
<rect x="650.0" y="266.0" width="88.0" height="42.0" fill="#ffaf23" stroke="white" stroke-width="2" rx="3"/>
<text x="694.0" y="291.0" font-family="system-ui,sans-serif" font-size="10" font-weight="500" fill="#fff" text-anchor="middle">1.280%</text>
<text x="100.0" y="333.0" font-family="system-ui,sans-serif" font-size="11" fill="#444" text-anchor="end">Uniform</text>
<rect x="110.0" y="308.0" width="88.0" height="42.0" fill="#ff3c00" stroke="white" stroke-width="2" rx="3"/>
<text x="154.0" y="333.0" font-family="system-ui,sans-serif" font-size="10" font-weight="500" fill="#fff" text-anchor="middle">3.740%</text>
<rect x="200.0" y="308.0" width="88.0" height="42.0" fill="#bfd655" stroke="white" stroke-width="2" rx="3"/>
<text x="244.0" y="333.0" font-family="system-ui,sans-serif" font-size="10" font-weight="500" fill="#333" text-anchor="middle">0.494%</text>
<rect x="290.0" y="308.0" width="88.0" height="42.0" fill="#f8db35" stroke="white" stroke-width="2" rx="3"/>
<text x="334.0" y="333.0" font-family="system-ui,sans-serif" font-size="10" font-weight="500" fill="#fff" text-anchor="middle">0.950%</text>
<rect x="380.0" y="308.0" width="88.0" height="42.0" fill="#91d36f" stroke="white" stroke-width="2" rx="3"/>
<text x="424.0" y="333.0" font-family="system-ui,sans-serif" font-size="10" font-weight="500" fill="#333" text-anchor="middle">0.122%</text>
<rect x="470.0" y="308.0" width="88.0" height="42.0" fill="#e6da3f" stroke="white" stroke-width="2" rx="3"/>
<text x="514.0" y="333.0" font-family="system-ui,sans-serif" font-size="10" font-weight="500" fill="#fff" text-anchor="middle">0.803%</text>
<rect x="560.0" y="308.0" width="88.0" height="42.0" fill="#83d277" stroke="white" stroke-width="2" rx="3"/>
<text x="604.0" y="333.0" font-family="system-ui,sans-serif" font-size="10" font-weight="500" fill="#333" text-anchor="middle">0.009%</text>
<rect x="650.0" y="308.0" width="88.0" height="42.0" fill="#84d276" stroke="white" stroke-width="2" rx="3"/>
<text x="694.0" y="333.0" font-family="system-ui,sans-serif" font-size="10" font-weight="500" fill="#333" text-anchor="middle">0.020%</text>
<rect x="110.0" y="368.0" width="5.5" height="12.0" fill="#82d278"/>
<rect x="115.0" y="368.0" width="5.5" height="12.0" fill="#88d274"/>
<rect x="120.0" y="368.0" width="5.5" height="12.0" fill="#8ed371"/>
<rect x="125.0" y="368.0" width="5.5" height="12.0" fill="#94d36d"/>
<rect x="130.0" y="368.0" width="5.5" height="12.0" fill="#9bd46a"/>
<rect x="135.0" y="368.0" width="5.5" height="12.0" fill="#a1d466"/>
<rect x="140.0" y="368.0" width="5.5" height="12.0" fill="#a7d563"/>
<rect x="145.0" y="368.0" width="5.5" height="12.0" fill="#add55f"/>
<rect x="150.0" y="368.0" width="5.5" height="12.0" fill="#b4d65c"/>
<rect x="155.0" y="368.0" width="5.5" height="12.0" fill="#bad658"/>
<rect x="160.0" y="368.0" width="5.5" height="12.0" fill="#c0d755"/>
<rect x="165.0" y="368.0" width="5.5" height="12.0" fill="#c6d751"/>
<rect x="170.0" y="368.0" width="5.5" height="12.0" fill="#cdd84e"/>
<rect x="175.0" y="368.0" width="5.5" height="12.0" fill="#d3d84a"/>
<rect x="180.0" y="368.0" width="5.5" height="12.0" fill="#d9d947"/>
<rect x="185.0" y="368.0" width="5.5" height="12.0" fill="#dfd943"/>
<rect x="190.0" y="368.0" width="5.5" height="12.0" fill="#e6da3f"/>
<rect x="195.0" y="368.0" width="5.5" height="12.0" fill="#ecda3c"/>
<rect x="200.0" y="368.0" width="5.5" height="12.0" fill="#f2db39"/>
<rect x="205.0" y="368.0" width="5.5" height="12.0" fill="#f8db35"/>
<rect x="210.0" y="368.0" width="5.5" height="12.0" fill="#ffdc32"/>
<rect x="215.0" y="368.0" width="5.5" height="12.0" fill="#ffd42f"/>
<rect x="220.0" y="368.0" width="5.5" height="12.0" fill="#ffcb2c"/>
<rect x="225.0" y="368.0" width="5.5" height="12.0" fill="#ffc42a"/>
<rect x="230.0" y="368.0" width="5.5" height="12.0" fill="#ffbc28"/>
<rect x="235.0" y="368.0" width="5.5" height="12.0" fill="#ffb425"/>
<rect x="240.0" y="368.0" width="5.5" height="12.0" fill="#ffac23"/>
<rect x="245.0" y="368.0" width="5.5" height="12.0" fill="#ffa320"/>
<rect x="250.0" y="368.0" width="5.5" height="12.0" fill="#ff9c1e"/>
<rect x="255.0" y="368.0" width="5.5" height="12.0" fill="#ff941b"/>
<rect x="260.0" y="368.0" width="5.5" height="12.0" fill="#ff8c19"/>
<rect x="265.0" y="368.0" width="5.5" height="12.0" fill="#ff8416"/>
<rect x="270.0" y="368.0" width="5.5" height="12.0" fill="#ff7c13"/>
<rect x="275.0" y="368.0" width="5.5" height="12.0" fill="#ff7411"/>
<rect x="280.0" y="368.0" width="5.5" height="12.0" fill="#ff6c0f"/>
<rect x="285.0" y="368.0" width="5.5" height="12.0" fill="#ff640c"/>
<rect x="290.0" y="368.0" width="5.5" height="12.0" fill="#ff5c09"/>
<rect x="295.0" y="368.0" width="5.5" height="12.0" fill="#ff5307"/>
<rect x="300.0" y="368.0" width="5.5" height="12.0" fill="#ff4c05"/>
<rect x="305.0" y="368.0" width="5.5" height="12.0" fill="#ff4402"/>
<text x="110.0" y="392.0" font-family="system-ui,sans-serif" font-size="9" fill="#666">0%</text>
<text x="210.0" y="392.0" font-family="system-ui,sans-serif" font-size="9" fill="#666" text-anchor="middle">1%</text>
<text x="310.0" y="392.0" font-family="system-ui,sans-serif" font-size="9" fill="#666" text-anchor="end">2%+</text>
</svg>
